<svg width="34" height="34" viewBox="0 0 34 34" fill="none" xmlns="http://www.w3.org/2000/svg">
<circle cx="17" cy="17" r="17" fill="#123B97"/>
<path d="M17.7305 13.4336V24H15.3672V13.4336H17.7305ZM15.2109 10.6602C15.2109 10.3021 15.3281 10.0059 15.5625 9.77148C15.8034 9.5306 16.1354 9.41016 16.5586 9.41016C16.9753 9.41016 17.304 9.5306 17.5449 9.77148C17.7858 10.0059 17.9062 10.3021 17.9062 10.6602C17.9062 11.0117 17.7858 11.3047 17.5449 11.5391C17.304 11.7734 16.9753 11.8906 16.5586 11.8906C16.1354 11.8906 15.8034 11.7734 15.5625 11.5391C15.3281 11.3047 15.2109 11.0117 15.2109 10.6602Z" fill="white"/>
</svg>
