<svg width="29" height="35" viewBox="0 0 29 35" fill="none" xmlns="http://www.w3.org/2000/svg">
<path d="M20.6107 0.0400391C22.7131 0.0400391 24.7294 0.900519 26.2161 2.43218C27.7027 3.96385 28.5379 6.04123 28.5379 8.20733V21.275C28.5379 23.4411 27.7027 25.5185 26.2161 27.0501C24.7294 28.5818 22.7131 29.4423 20.6107 29.4423H7.92719C5.82477 29.4423 3.80846 28.5818 2.32182 27.0501C0.835184 25.5185 0 23.4411 0 21.275V8.20733C0 6.04123 0.835184 3.96385 2.32182 2.43218C3.80846 0.900519 5.82477 0.0400391 7.92719 0.0400391H20.6107ZM14.2689 8.20733C12.587 8.20733 10.974 8.89571 9.78465 10.121C8.59534 11.3464 7.92719 13.0083 7.92719 14.7412C7.92719 16.474 8.59534 18.1359 9.78465 19.3613C10.974 20.5866 12.587 21.275 14.2689 21.275C15.9509 21.275 17.5639 20.5866 18.7532 19.3613C19.9426 18.1359 20.6107 16.474 20.6107 14.7412C20.6107 13.0083 19.9426 11.3464 18.7532 10.121C17.5639 8.89571 15.9509 8.20733 14.2689 8.20733ZM14.2689 11.4742C15.1099 11.4742 15.9164 11.8184 16.5111 12.4311C17.1058 13.0438 17.4398 13.8747 17.4398 14.7412C17.4398 15.6076 17.1058 16.4386 16.5111 17.0512C15.9164 17.6639 15.1099 18.0081 14.2689 18.0081C13.428 18.0081 12.6215 17.6639 12.0268 17.0512C11.4321 16.4386 11.0981 15.6076 11.0981 14.7412C11.0981 13.8747 11.4321 13.0438 12.0268 12.4311C12.6215 11.8184 13.428 11.4742 14.2689 11.4742ZM21.4034 5.75714C20.9829 5.75714 20.5797 5.92924 20.2824 6.23557C19.985 6.5419 19.818 6.95738 19.818 7.3906C19.818 7.82382 19.985 8.2393 20.2824 8.54563C20.5797 8.85196 20.9829 9.02406 21.4034 9.02406C21.8239 9.02406 22.2272 8.85196 22.5245 8.54563C22.8218 8.2393 22.9889 7.82382 22.9889 7.3906C22.9889 6.95738 22.8218 6.5419 22.5245 6.23557C22.2272 5.92924 21.8239 5.75714 21.4034 5.75714Z" fill="#8494C5"/>
</svg>
