<svg width="58" height="59" viewBox="0 0 58 59" fill="none" xmlns="http://www.w3.org/2000/svg">
<g id="material-symbols-light:volunteer-activism-outline">
<path id="Vector" d="M37.9562 30.5629L28.9496 21.9319C27.8971 20.9192 27.0192 19.7869 26.3159 18.535C25.6126 17.2831 25.2609 15.9196 25.2609 14.4444C25.2609 12.6853 25.8765 11.1902 27.1077 9.95907C28.3372 8.72789 29.8308 8.1123 31.5882 8.1123C32.8943 8.1123 34.0825 8.46555 35.1526 9.17204C36.2227 9.87853 37.1564 10.7365 37.9538 11.746C38.7512 10.7365 39.6857 9.87853 40.7574 9.17204C41.8259 8.46555 43.014 8.1123 44.3218 8.1123C46.0808 8.1123 47.5751 8.72789 48.8047 9.95907C50.0343 11.1902 50.6507 12.6846 50.6539 14.442C50.6539 15.9188 50.3046 17.2831 49.6061 18.535C48.906 19.7869 48.0296 20.9192 46.9771 21.9319L37.9562 30.5629ZM37.9562 27.2689L45.1208 20.4105C45.9692 19.5908 46.7052 18.6833 47.3287 17.6882C47.9507 16.693 48.2617 15.611 48.2617 14.442C48.2617 13.3512 47.8789 12.4222 47.1134 11.6551C46.3479 10.888 45.4174 10.5045 44.3218 10.5045C43.3649 10.5045 42.5069 10.7907 41.7478 11.3633C40.9887 11.9342 40.3069 12.608 39.7025 13.3847L37.9562 15.5735L36.2075 13.3847C35.6015 12.608 34.9197 11.9342 34.1622 11.3633C33.4031 10.7907 32.5451 10.5045 31.5882 10.5045C30.4958 10.5045 29.5668 10.8872 28.8013 11.6527C28.0342 12.4214 27.6507 13.3512 27.6507 14.442C27.6507 15.611 27.9617 16.693 28.5836 17.6882C29.2056 18.6833 29.9416 19.5908 30.7916 20.4105L37.9562 27.2689ZM15.7376 45.5594L33.8345 50.839L48.1612 46.4134C48.1134 45.6878 47.8957 45.1647 47.5081 44.8442C47.1206 44.5236 46.682 44.3633 46.1925 44.3633H34.8416C33.8305 44.3633 32.9135 44.3235 32.0906 44.2437C31.2677 44.164 30.4264 43.9742 29.5668 43.6744L24.328 41.9568L25.1365 39.5934L29.9807 41.3444C30.7494 41.6363 31.6233 41.8117 32.6025 41.8707C33.5801 41.9281 34.9197 41.9616 36.6213 41.9712C36.6213 41.2248 36.4842 40.622 36.2099 40.1627C35.9356 39.7034 35.5425 39.3828 35.0306 39.201L21.266 34.1488C21.1751 34.1185 21.0905 34.0961 21.0124 34.0818C20.9343 34.0674 20.8505 34.0594 20.7612 34.0579H15.7376V45.5594ZM6.16895 51.1715V31.6657H20.7038C20.9271 31.6657 21.1567 31.6912 21.3928 31.7422C21.6288 31.7933 21.8481 31.8523 22.0506 31.9192L35.875 36.9835C36.7314 37.3088 37.4682 37.8933 38.0854 38.737C38.7041 39.5806 39.0135 40.6587 39.0135 41.9712H46.1901C47.6317 41.9712 48.7353 42.4217 49.5008 43.3228C50.2679 44.2254 50.6515 45.3697 50.6515 46.7555V48.2267L33.9541 53.3795L15.7353 48.0688V51.1715H6.16895ZM8.56112 48.7793H13.3455V34.0579H8.56112V48.7793Z" fill="white"/>
</g>
</svg>
